# xmcd
#
# Track frame offsets: 
#        150
#        13787
#        25712
#        39727
#        53777
#        66830
#        79687
#        93040
#        108100
#        119725
#        130937
#        146235
#        157907
#        169672
#        181275
#        193892
#        205077
#        217387
#        230710
#        244257
#        256995
#        268737
#        284055
#        298870
#        312355
#        326907
#        341530
#
# Disc length: 4735 seconds
#
# Revision: 0
# Processed by: cddbd v1.5.1PL0 Copyright (c) Steve Scherf et al.
# Submitted via: ExactAudioCopy v0.95a4
#
DISCID=a8127d1b
DTITLE=The Blue Sky Boys - The Sunny Side Of Life - Disc 1
DYEAR=1900
DGENRE=Country
TTITLE0=I'm Just Here To Get My Baby Out Of Jail
TTITLE1=Sunny Side Of Life
TTITLE2=There'll Come A Time
TTITLE3=Where The Soul (Of Man) Never Dies
TTITLE4=Midnight On The Stormy Sea
TTITLE5=Take Up Thy Cross
TTITLE6=Row Us Over The Tide
TTITLE7=Down On The Banks Of The Ohio
TTITLE8=I'm Troubled, I'm Troubled
TTITLE9=The Dying Boy's Prayer
TTITLE10=No One To Welcome Me Home
TTITLE11=Didn't They Crucify My Lord
TTITLE12=Only Let Me Walk With Thee
TTITLE13=Can't You Hear That Night Bird Crying
TTITLE14=An Old Account Was Settled
TTITLE15=Sweet Allallee
TTITLE16=You Give Me Your Love
TTITLE17=I Believe It
TTITLE18=When The Ransomed Get Home
TTITLE19=Fair Eyed Ellen
TTITLE20=Somebody Makes Me Think Of You
TTITLE21=Sweet Evalina
TTITLE22=No Home
TTITLE23=What Have You Done
TTITLE24=Sing A Song For The Blind
TTITLE25=Within The Circle
TTITLE26=They're All Home But One
EXTD=
EXTT0=
EXTT1=
EXTT2=
EXTT3=
EXTT4=
EXTT5=
EXTT6=
EXTT7=
EXTT8=
EXTT9=
EXTT10=
EXTT11=
EXTT12=
EXTT13=
EXTT14=
EXTT15=
EXTT16=
EXTT17=
EXTT18=
EXTT19=
EXTT20=
EXTT21=
EXTT22=
EXTT23=
EXTT24=
EXTT25=
EXTT26=
PLAYORDER=
